<?xml version="1.0" encoding="utf-8"?>
<!-- Generator: Adobe Illustrator 18.1.1, SVG Export Plug-In . SVG Version: 6.00 Build 0)  -->
<svg version="1.1" id="Layer_1" xmlns="http://www.w3.org/2000/svg" xmlns:xlink="http://www.w3.org/1999/xlink" x="0px" y="0px"
	 viewBox="0 0 500 500" enable-background="new 0 0 500 500" xml:space="preserve">
<g>
	<path fill="#FFFFFF" d="M106.8,449.4c1.6-2.2,3.6-3.4,6-3.5v4.5c-1.6,0.1-2.8,0.6-3.8,1.5c-1.4,1.4-2.2,3.1-2.2,5v11.1h-4.4v-21.6
		h4.4V449.4z"/>
	<path fill="#FFFFFF" d="M123.7,463.3c0.7,0.6,2.1,1,4,1c2.1,0,3.8-0.7,5.3-2.2c0.2-0.2,0.6-0.6,1.1-1.3l4.4,1.6
		c-1.1,1.5-1.8,2.4-2.3,2.9c-2.3,2.3-5.2,3.5-8.5,3.5c-3.3,0-6.1-1.2-8.5-3.5c-2.3-2.3-3.5-5.2-3.5-8.5s1.2-6.1,3.5-8.5
		s5.2-3.5,8.5-3.5c2.8,0,5.3,0.9,7.4,2.6c0.4,0.3,0.7,0.6,1,0.9c0.1,0.1,0.5,0.6,1.2,1.3l-2.2,2.2L123.7,463.3z M131,449.8
		c-0.5-0.4-1.6-0.6-3.3-0.6c-2.1,0-3.8,0.7-5.3,2.2c-1.5,1.5-2.2,3.2-2.2,5.3c0,1.7,0.2,2.8,0.6,3.3L131,449.8z"/>
	<path fill="#FFFFFF" d="M147.9,463.5c0.5,0.5,1.1,0.8,1.9,0.8c0.7,0,1.3-0.3,1.8-0.8c0.5-0.5,0.8-1.1,0.8-1.9
		c0-0.7-0.3-1.3-0.8-1.8c-0.4-0.4-1.1-0.9-2.3-1.6c-1.6-0.9-2.7-1.6-3.3-2.3c-1.1-1.1-1.7-2.5-1.7-4.1c0-1.6,0.6-3,1.7-4.2
		c1.1-1.2,2.5-1.7,4.2-1.7c1.6,0,3,0.5,4.1,1.6c0.8,0.8,1.3,1.6,1.5,2.6l-4.2,1.2c-0.1-0.4-0.2-0.6-0.3-0.7c-0.3-0.3-0.6-0.4-1-0.4
		c-0.4,0-0.8,0.2-1.1,0.5c-0.3,0.3-0.5,0.7-0.5,1.1s0.1,0.8,0.4,1.1c0.3,0.3,0.9,0.7,1.8,1.3c1.7,1,3,1.8,3.8,2.6c1.4,1.4,2,3,2,4.9
		c0,1.9-0.7,3.6-2,5c-1.4,1.4-3,2.1-4.9,2.1c-1.9,0-3.6-0.7-4.9-2.1c-0.9-0.9-1.6-2.1-1.9-3.5l4.3-0.9
		C147.4,462.8,147.6,463.3,147.9,463.5z"/>
	<path fill="#FFFFFF" d="M166.4,465.5v10h-4.4v-28.9h4.4v2c2.1-2.5,4.6-3.7,7.3-3.7c3.3,0,6.1,1.2,8.5,3.5c2.3,2.3,3.5,5.2,3.5,8.5
		s-1.2,6.1-3.5,8.5c-2.3,2.3-5.2,3.5-8.5,3.5C171,468.7,168.5,467.6,166.4,465.5z M166.4,455.1v3.4c0.3,1.3,0.9,2.5,2,3.6
		c1.5,1.5,3.2,2.2,5.3,2.2c2.1,0,3.8-0.7,5.3-2.2c1.5-1.5,2.2-3.2,2.2-5.3c0-2.1-0.7-3.8-2.2-5.3s-3.2-2.2-5.3-2.2
		c-2.1,0-3.8,0.7-5.3,2.2C167.4,452.5,166.7,453.7,166.4,455.1z"/>
	<path fill="#FFFFFF" d="M201.7,444.8c3.3,0,6.1,1.2,8.5,3.5c2.3,2.3,3.5,5.2,3.5,8.5s-1.2,6.1-3.5,8.5c-2.3,2.3-5.2,3.5-8.5,3.5
		c-3.3,0-6.1-1.2-8.5-3.5c-2.3-2.3-3.5-5.2-3.5-8.5s1.2-6.1,3.5-8.5S198.4,444.8,201.7,444.8z M196.4,451.4
		c-1.5,1.5-2.2,3.2-2.2,5.3c0,2.1,0.7,3.8,2.2,5.3c1.5,1.5,3.2,2.2,5.3,2.2c2.1,0,3.8-0.7,5.3-2.2c1.5-1.5,2.2-3.2,2.2-5.3
		c0-2.1-0.7-3.8-2.2-5.3s-3.2-2.2-5.3-2.2C199.6,449.2,197.9,450,196.4,451.4z"/>
	<path fill="#FFFFFF" d="M223.1,452.3v15.8h-4.4v-21.6h4.4v2.5c0.9-2.5,2.7-3.7,5.5-3.7c2.3,0,4.2,0.8,5.6,2.5s2.1,3.7,2.1,6.3v14.1
		H232v-13.9c0-1.2-0.5-2.3-1.4-3.2s-2-1.3-3.3-1.3c-1.2,0-2.3,0.4-3.2,1.3C223.6,451.5,223.3,452,223.1,452.3z"/>
	<path fill="#FFFFFF" d="M247.1,463.5c0.5,0.5,1.1,0.8,1.9,0.8c0.7,0,1.3-0.3,1.8-0.8s0.8-1.1,0.8-1.9c0-0.7-0.3-1.3-0.8-1.8
		c-0.4-0.4-1.1-0.9-2.3-1.6c-1.6-0.9-2.7-1.6-3.3-2.3c-1.1-1.1-1.7-2.5-1.7-4.1c0-1.6,0.6-3,1.7-4.2c1.1-1.2,2.5-1.7,4.2-1.7
		c1.6,0,3,0.5,4.1,1.6c0.8,0.8,1.3,1.6,1.5,2.6l-4.2,1.2c-0.1-0.4-0.2-0.6-0.3-0.7c-0.3-0.3-0.6-0.4-1-0.4c-0.4,0-0.8,0.2-1.1,0.5
		c-0.3,0.3-0.5,0.7-0.5,1.1s0.1,0.8,0.4,1.1c0.3,0.3,0.9,0.7,1.8,1.3c1.7,1,3,1.8,3.8,2.6c1.4,1.4,2,3,2,4.9c0,1.9-0.7,3.6-2,5
		c-1.4,1.4-3,2.1-4.9,2.1c-1.9,0-3.6-0.7-4.9-2.1c-0.9-0.9-1.6-2.1-1.9-3.5l4.3-0.9C246.6,462.8,246.8,463.3,247.1,463.5z"/>
	<path fill="#FFFFFF" d="M265.9,438.5c0.6,0.6,0.9,1.3,0.9,2.2s-0.3,1.6-0.9,2.2c-0.6,0.6-1.3,0.9-2.2,0.9c-0.8,0-1.5-0.3-2.1-0.9
		c-0.6-0.6-0.9-1.3-0.9-2.2s0.3-1.6,0.9-2.2c0.6-0.6,1.3-0.9,2.1-0.9C264.6,437.6,265.3,437.9,265.9,438.5z M266,446.5v21.6h-4.4
		v-21.6H266z"/>
	<path fill="#FFFFFF" d="M280.8,468.2l-10.3-21.6h4.9l6.5,14.1l6.5-14.1h4.9L283,468.2H280.8z"/>
	<path fill="#FFFFFF" d="M303.9,463.3c0.7,0.6,2.1,1,4,1c2.1,0,3.8-0.7,5.3-2.2c0.2-0.2,0.6-0.6,1.1-1.3l4.4,1.6
		c-1.1,1.5-1.8,2.4-2.3,2.9c-2.3,2.3-5.2,3.5-8.5,3.5c-3.3,0-6.1-1.2-8.5-3.5c-2.3-2.3-3.5-5.2-3.5-8.5s1.2-6.1,3.5-8.5
		c2.3-2.3,5.2-3.5,8.5-3.5c2.8,0,5.3,0.9,7.4,2.6c0.4,0.3,0.7,0.6,1,0.9c0.1,0.1,0.5,0.6,1.2,1.3l-2.2,2.2L303.9,463.3z
		 M311.2,449.8c-0.5-0.4-1.6-0.6-3.3-0.6c-2.1,0-3.8,0.7-5.3,2.2c-1.5,1.5-2.2,3.2-2.2,5.3c0,1.7,0.2,2.8,0.6,3.3L311.2,449.8z"/>
</g>
<g>
	<path fill="#FFFFFF" d="M465.6,258.9l-21.6,10.3v-4.9l14.1-6.5l-14.1-6.5v-4.9l21.6,10.3V258.9z"/>
	<path fill="#FFFFFF" d="M435.9,237.5c0.6-0.6,1.3-0.9,2.2-0.9s1.6,0.3,2.2,0.9c0.6,0.6,0.9,1.3,0.9,2.2c0,0.8-0.3,1.5-0.9,2.1
		c-0.6,0.6-1.3,0.9-2.2,0.9s-1.6-0.3-2.2-0.9s-0.9-1.3-0.9-2.1C435,238.8,435.3,238.1,435.9,237.5z M443.9,237.4h21.6v4.4h-21.6
		V237.4z"/>
	<path fill="#FFFFFF" d="M460.7,224c0.6-0.7,1-2.1,1-4c0-2.1-0.7-3.8-2.2-5.3c-0.2-0.2-0.6-0.6-1.3-1.1l1.6-4.4
		c1.5,1.1,2.4,1.8,2.9,2.3c2.3,2.3,3.5,5.2,3.5,8.5c0,3.3-1.2,6.1-3.5,8.5c-2.3,2.3-5.2,3.5-8.5,3.5s-6.1-1.2-8.5-3.5
		s-3.5-5.2-3.5-8.5c0-2.8,0.9-5.3,2.6-7.4c0.3-0.4,0.6-0.7,0.9-1c0.1-0.1,0.6-0.5,1.3-1.2l2.2,2.2L460.7,224z M447.2,216.8
		c-0.4,0.5-0.6,1.6-0.6,3.3c0,2.1,0.7,3.8,2.2,5.3c1.5,1.5,3.2,2.2,5.3,2.2c1.7,0,2.8-0.2,3.3-0.6L447.2,216.8z"/>
	<path fill="#FFFFFF" d="M459.1,195.1h-15.2v-4.4h14.9c0.8,0,1.4-0.3,1.9-0.8c0.5-0.5,0.8-1.1,0.8-1.9c0-1.7-1.1-2.6-3.2-2.6h-14.3
		v-4.4h15.2c1.9,0.1,3.4,0.8,4.7,2c1.4,1.4,2.1,3,2.1,4.9c0,1.9-0.7,3.5-2,4.8c1.3,1.3,2,2.9,2,4.8c0,1.9-0.7,3.6-2.1,4.9
		c-1.3,1.3-2.9,2-4.7,2h-15.2v-4.4h14.3c2.1,0,3.2-0.9,3.2-2.6c0-0.7-0.3-1.3-0.8-1.9C460.3,195.4,459.8,195.2,459.1,195.1z"/>
	<path fill="#FFFFFF" d="M460.7,168.5c0.6-0.7,1-2.1,1-4c0-2.1-0.7-3.8-2.2-5.3c-0.2-0.2-0.6-0.6-1.3-1.1l1.6-4.4
		c1.5,1.1,2.4,1.8,2.9,2.3c2.3,2.3,3.5,5.2,3.5,8.5c0,3.3-1.2,6.1-3.5,8.5c-2.3,2.3-5.2,3.5-8.5,3.5s-6.1-1.2-8.5-3.5
		s-3.5-5.2-3.5-8.5c0-2.8,0.9-5.3,2.6-7.4c0.3-0.4,0.6-0.7,0.9-1c0.1-0.1,0.6-0.5,1.3-1.2l2.2,2.2L460.7,168.5z M447.2,161.2
		c-0.4,0.5-0.6,1.6-0.6,3.3c0,2.1,0.7,3.8,2.2,5.3c1.5,1.5,3.2,2.2,5.3,2.2c1.7,0,2.8-0.2,3.3-0.6L447.2,161.2z"/>
	<path fill="#FFFFFF" d="M446.8,144.3c-2.2-1.6-3.4-3.6-3.5-6h4.5c0.1,1.6,0.6,2.8,1.5,3.8c1.4,1.4,3.1,2.2,5,2.2h11.1v4.4h-21.6
		v-4.4H446.8z"/>
</g>
<g>
	<path fill="#FFFFFF" d="M85.8,224.9v-143H126c19.6,0,36.4,7,50.3,20.9c14,13.9,21,30.7,21,50.4c0,19.9-7,36.8-21,50.8
		c-1.4,1.4-2.8,2.6-4.2,3.9l23.9,38.6c3.7-3.2,7.6-6.9,11.8-11.1c22.6-22.7,33.8-50.1,33.8-82.1c0-31.8-11.3-59-33.8-81.7
		c-18.9-18.9-42-30.1-69.4-33.8H41.7v340.5h44v-109H126l8.7-1.4l-25.8-42.9H85.8z"/>
</g>
<path fill="#FFFFFF" d="M213,378.1L92.6,181.4h54.6l79.6,131.7l98.8-275.5h47L248.5,378.1H213z"/>
<g>
	<line fill="none" stroke="#FFFFFF" stroke-width="3.8738" stroke-miterlimit="10" x1="41.7" y1="414.9" x2="372.6" y2="414.9"/>
	<line fill="none" stroke="#FFFFFF" stroke-width="7.7477" stroke-miterlimit="10" x1="43.7" y1="430.4" x2="43.7" y2="399.4"/>
	<line fill="none" stroke="#FFFFFF" stroke-width="2.9283" stroke-miterlimit="10" x1="155.6" y1="430.4" x2="155.6" y2="399.4"/>
	<line fill="none" stroke="#FFFFFF" stroke-width="2.9283" stroke-miterlimit="10" x1="259.7" y1="430.4" x2="259.7" y2="399.4"/>
	<line fill="none" stroke="#FFFFFF" stroke-width="0.9339" stroke-miterlimit="10" x1="315.8" y1="424.9" x2="315.8" y2="404.9"/>
	<line fill="none" stroke="#FFFFFF" stroke-width="0.9339" stroke-miterlimit="10" x1="209.3" y1="424.9" x2="209.3" y2="404.9"/>
	<line fill="none" stroke="#FFFFFF" stroke-width="0.9339" stroke-miterlimit="10" x1="102.3" y1="424.9" x2="102.3" y2="404.9"/>
	<line fill="none" stroke="#FFFFFF" stroke-width="7.7477" stroke-miterlimit="10" x1="370.6" y1="430.4" x2="370.6" y2="399.4"/>
</g>
<g>
	<line fill="none" stroke="#FFFFFF" stroke-width="3.8738" stroke-miterlimit="10" x1="408.3" y1="37.6" x2="408.3" y2="368.4"/>
	<line fill="none" stroke="#FFFFFF" stroke-width="7.7477" stroke-miterlimit="10" x1="392.8" y1="39.6" x2="423.8" y2="39.6"/>
	<line fill="none" stroke="#FFFFFF" stroke-width="2.9283" stroke-miterlimit="10" x1="392.8" y1="151.5" x2="423.8" y2="151.5"/>
	<line fill="none" stroke="#FFFFFF" stroke-width="2.9283" stroke-miterlimit="10" x1="392.8" y1="255.6" x2="423.8" y2="255.6"/>
	<line fill="none" stroke="#FFFFFF" stroke-width="0.9339" stroke-miterlimit="10" x1="398.3" y1="311.7" x2="418.3" y2="311.7"/>
	<line fill="none" stroke="#FFFFFF" stroke-width="0.9339" stroke-miterlimit="10" x1="398.3" y1="205.2" x2="418.3" y2="205.2"/>
	<line fill="none" stroke="#FFFFFF" stroke-width="0.9339" stroke-miterlimit="10" x1="398.3" y1="98.2" x2="418.3" y2="98.2"/>
	<line fill="none" stroke="#FFFFFF" stroke-width="7.7477" stroke-miterlimit="10" x1="392.8" y1="366.5" x2="423.8" y2="366.5"/>
</g>
</svg>
